# xmcd
#
# Track frame offsets:
#	150
#	24381
#	43565
#	60012
#	77431
#	99454
#	115452
#	132536
#	148366
#	172467
#	190205
#	211628
#
# Disc length: 3333 seconds
#
# Revision: 0
# Processed by: cddbd v1.5.2PL0 Copyright (c) Steve Scherf et al.
# Submitted via: audiograbber 1.83.01
#
DISCID=a60d030c
DTITLE=Urban, Keith - Golden road
DYEAR=2002
DGENRE=Pop
TTITLE0=Somebody like you
TTITLE1=Who wouldn't want to be me
TTITLE2=Whenever I run
TTITLE3=What about me
TTITLE4=You'll think of me
TTITLE5=Jeans on
TTITLE6=You look good in my shirt
TTITLE7=You're not alone tonight
TTITLE8=You won
TTITLE9=Song for Dad
TTITLE10=Rainin on sunday
TTITLE11=You're not my God
EXTD=YEAR: 2002
EXTT0=
EXTT1=
EXTT2=
EXTT3=
EXTT4=
EXTT5=
EXTT6=
EXTT7=
EXTT8=
EXTT9=
EXTT10=
EXTT11=
PLAYORDER=
